<svg xmlns="http://www.w3.org/2000/svg" xmlns:svg="http://www.w3.org/2000/svg" id="svg876" width="19" height="33" fill="none" version="1.1" viewBox="0 0 19 33"><metadata id="metadata882"/><path id="path866" fill="#789B8C" fill-rule="evenodd" d="M11.25 14.125V16.9375H9.375V14.125C9.375 11.5376 7.2749 9.4375 4.6875 9.4375V7.5625H6.5625C8.11865 7.5625 9.375 6.3064 9.375 4.75V3.8125H0V9.86865C0 13.3188 1.36865 16.675 3.75 19.1499C3.75 19.1499 3.75 23.9961 3.75 26.0236C3.75 28.2794 3.69224 28.3018 5.52217 30.287C7.3521 32.2722 10.727 32 10.727 32C10.727 32 13.6666 31.6559 15.0396 30.287C16.4126 28.918 16.875 26.0236 16.875 26.0236V19.0376L17.3438 18.1001C18.2625 16.2625 18.75 14.2 18.75 12.1375V9.4375H9.26245C10.4812 10.6187 11.25 12.2876 11.25 14.125Z" clip-rule="evenodd" style="fill:#feffff;fill-opacity:1"/><path id="path868" fill="#789B8C" fill-rule="evenodd" d="M15.9375 1.9375H18.75V7.5625H15.9375V1.9375Z" clip-rule="evenodd" style="fill:#feffff;fill-opacity:1"/><path id="path870" fill="#789B8C" fill-rule="evenodd" d="M11.25 0H14.0625V7.5625H11.25V0Z" clip-rule="evenodd" style="fill:#feffff;fill-opacity:1"/><path id="path872" fill="#789B8C" fill-rule="evenodd" d="M6.5625 0H9.375V1.9375H6.5625V0Z" clip-rule="evenodd" style="fill:#feffff;fill-opacity:1"/><path id="path874" fill="#789B8C" fill-rule="evenodd" d="M1.875 0H4.6875V1.9375H1.875V0Z" clip-rule="evenodd" style="fill:#feffff;fill-opacity:1"/></svg>