<svg xmlns="http://www.w3.org/2000/svg" xmlns:svg="http://www.w3.org/2000/svg" id="Capa_1" width="32" height="18.548" x="0" y="0" version="1.1" viewBox="0 0 32 18.548" xml:space="preserve"><metadata id="metadata43"/><g style="fill:#000;fill-opacity:1" id="g6" transform="matrix(0.04041409,0,0,0.04041409,0,-6.7257937)"><path style="fill:#fff;fill-opacity:1" id="path2" d="m 395.904,475.016 -236.203,-72.7 v 71.524 49.896 c 0,56.133 105.787,101.644 236.274,101.644 130.48,0 236.285,-45.511 236.285,-101.644 0,-0.442 -0.145,-0.886 -0.154,-1.318 V 402.316 Z"/><path style="fill:#fff;fill-opacity:1" id="path4" d="m 0,318.734 84.383,30.185 7.191,-15.401 31,-2.635 4.42,4.599 -26.601,6.308 -3.877,11.475 c -0.007,0 -60.087,125.604 -51.263,187.05 0,0 37.502,22.37 74.988,0 l 9.962,-168 v -13.984 l 55.8,-12.588 -3.941,9.705 -41.604,13.529 19.242,6.874 236.203,72.7 236.201,-72.7 159.699,-57.116 -395.9,-152.313 z"/></g></svg>