<svg xmlns="http://www.w3.org/2000/svg" xmlns:svg="http://www.w3.org/2000/svg" id="svg1561" width="55.791" height="128" version="1.1" viewBox="0 0 14.761 33.867"><metadata id="metadata1558"/><g id="layer1" transform="translate(-66.160433,-111.91867)"><g style="fill:none;fill-rule:evenodd;stroke:none;stroke-width:1" id="Target-Doll" transform="matrix(0.35841461,0,0,0.35841461,57.908044,112.67527)"><ellipse style="fill:#fff;fill-opacity:1" id="Oval" cx="43.728" cy="5.654" rx="8.517" ry="7.765"/><path style="fill:#fff;fill-opacity:1" id="Combined-Shape" d="m 55.060955,52.084422 0.01936,35.880749 c 0,2.601799 -2.24735,4.385539 -4.455865,4.41372 -2.25688,0.0288 -4.475973,-1.754942 -4.475973,-4.41372 V 55.714329 h -4.373759 v 32.250842 c 0,2.425126 -2.2176,4.41372 -4.949759,4.41372 -2.73408,0 -4.680959,-1.988594 -4.680959,-4.41372 l 0.02877,-35.880749 z"/><g id="g2227"><path style="fill:#fff;fill-opacity:1" id="path308" d="m 25.617188,18.316406 c -3.668766,-0.05227 -7.262714,0.181254 -9.824219,0.681641 -2.551079,0.498351 -1.047616,0.156792 -2.542969,0.511719 -2.314857,0.549439 -3.5665384,0.789355 -4.8964844,5.476562 -1.144246,4.032732 -2.0775479,11.023827 -3.2949218,23.515625 -0.541004,4.214675 5.5660002,4.497851 6.0878902,0.478516 0.812159,-6.314445 1.251033,-14.240793 3.007813,-20.582031 l 0.01953,24.539062 c 7.628906,0 15.257813,0 22.886719,0 h 0.002 l 0.01758,-24.539062 c 1.75678,6.341238 2.197607,14.267586 3.009766,20.582031 0.52189,4.019335 6.626941,3.736159 6.085937,-0.478516 C 44.958455,36.010155 44.027106,29.01906 42.88286,24.986328 41.552915,20.299121 40.29928,20.059205 37.984423,19.509766 36.48907,19.154839 37.994483,19.496396 35.443407,18.998047 32.881902,18.49766 29.286001,18.264136 25.617236,18.316406 Z" transform="translate(18,-2.937978)"/></g></g></g></svg>