<svg xmlns="http://www.w3.org/2000/svg" xmlns:svg="http://www.w3.org/2000/svg" id="svg8" version="1.1" viewBox="0 0 120 120"><path id="path2" fill="#010101" d="M3.272 58.772c0 31.204 25.296 56.5 56.5 56.5 31.203 0 56.5-25.296 56.5-56.5 0-16.264-6.882-30.91-17.88-41.22L84.03 32.885c6.912 6.482 11.244 15.688 11.244 25.89 0 19.574-15.926 35.5-35.5 35.5-19.575 0-35.5-15.926-35.5-35.5" style="fill:#fff"/><path id="path4" fill="#010101" d="M95.272 58.772c0 19.575-15.925 35.5-35.5 35.5-19.574 0-35.5-15.926-35.5-35.5 0-10.2 4.332-19.406 11.245-25.89l-14.365-15.33C10.154 27.86 3.272 42.507 3.272 58.77c0 31.204 25.297 56.5 56.5 56.5 31.204 0 56.5-25.297 56.5-56.5" style="fill:#f9f9f9"/><path id="path6" fill="#010101" d="M49.785 0H69.76v61.576H49.785z" style="fill:#fff"/></svg>